<?xml version="1.0" standalone="no"?>
<!DOCTYPE svg PUBLIC "-//W3C//DTD SVG 20010904//EN"
 "http://www.w3.org/TR/2001/REC-SVG-20010904/DTD/svg10.dtd">
<svg version="1.0" xmlns="http://www.w3.org/2000/svg"
 width="130.000000pt" height="126.000000pt" viewBox="0 0 130.000000 126.000000"
 preserveAspectRatio="xMidYMid meet">

<g transform="translate(0.000000,126.000000) scale(0.100000,-0.100000)"
fill="#000000" stroke="none">
<path d="M409 962 c-273 -289 -370 -396 -386 -425 -7 -12 -12 -36 -13 -54 0
-45 45 -87 178 -164 l109 -64 -4 -36 c-6 -42 7 -55 36 -37 18 11 25 8 54 -20
38 -37 47 -39 47 -12 0 11 6 23 14 26 8 3 68 -20 133 -51 l118 -56 30 34 c17
18 147 161 290 316 143 156 261 289 263 295 2 11 -57 46 -78 46 -19 0 -10 -17
15 -28 14 -6 25 -17 25 -23 0 -6 -122 -144 -272 -307 -149 -163 -272 -298
-273 -300 -1 -1 -59 24 -128 57 -110 52 -125 62 -120 80 3 12 9 21 13 21 4 0
54 -21 110 -46 84 -37 105 -43 115 -32 7 7 119 129 249 271 l236 257 0 66 c0
41 -4 63 -10 59 -5 -3 -10 -30 -10 -59 l0 -53 -227 -246 c-124 -136 -232 -247
-238 -247 -11 0 -45 61 -45 81 0 5 128 148 285 316 157 169 284 311 282 316
-3 9 -551 257 -567 257 -4 0 -109 -107 -231 -238z m498 94 c142 -63 258 -120
258 -126 0 -15 -536 -590 -550 -590 -7 0 -118 52 -247 115 -129 63 -245 115
-257 115 -11 0 -21 4 -21 8 0 15 539 592 552 592 4 0 124 -51 265 -114z m-794
-512 c3 -3 1 -14 -5 -24 -22 -35 -1 -69 76 -118 40 -26 88 -55 105 -64 30 -17
35 -48 7 -48 -21 0 -210 119 -238 150 -41 44 -36 80 12 99 31 12 35 13 43 5z
m273 -126 c219 -109 227 -114 247 -155 12 -24 18 -45 15 -48 -3 -3 -44 13 -92
34 -81 38 -86 42 -74 60 14 23 18 19 -54 59 l-57 32 -20 -26 c-14 -18 -26 -24
-38 -20 -35 14 -183 111 -188 124 -6 16 11 52 25 52 5 0 111 -51 236 -112z
m38 -78 c33 -20 34 -22 20 -48 -8 -15 -17 -44 -20 -65 -8 -48 -22 -56 -44 -27
-12 16 -24 21 -39 17 -17 -4 -21 -1 -21 20 0 35 40 123 56 123 7 0 28 -9 48
-20z"/>
<path d="M746 899 l-35 -42 -61 26 c-46 20 -60 23 -60 12 0 -7 22 -24 50 -37
l50 -23 -76 -89 c-41 -48 -72 -91 -69 -95 7 -6 58 46 128 129 l38 45 42 -16
c23 -9 50 -20 60 -24 12 -5 17 -3 17 8 0 8 -20 22 -45 31 -25 10 -45 21 -45
25 0 4 13 22 30 41 16 19 29 38 30 43 1 18 -21 4 -54 -34z"/>
</g>
</svg>
