<?xml version="1.0" standalone="no"?>
<!DOCTYPE svg PUBLIC "-//W3C//DTD SVG 20010904//EN"
 "http://www.w3.org/TR/2001/REC-SVG-20010904/DTD/svg10.dtd">
<svg version="1.0" xmlns="http://www.w3.org/2000/svg"
 width="84.000000pt" height="126.000000pt" viewBox="0 0 84.000000 126.000000"
 preserveAspectRatio="xMidYMid meet">

<g transform="translate(0.000000,126.000000) scale(0.100000,-0.100000)"
fill="#000000" stroke="none">
<path d="M410 1155 c0 -22 -4 -25 -37 -26 l-38 -1 38 -10 c36 -10 37 -11 37
-56 0 -42 -4 -50 -48 -91 -27 -25 -52 -53 -55 -63 -3 -9 3 -33 14 -54 24 -49
35 -104 20 -104 -6 0 -16 -11 -21 -25 -5 -14 -16 -25 -23 -25 -8 0 -34 -18
-59 -39 -42 -37 -50 -40 -129 -48 l-84 -8 -3 -32 c-2 -25 1 -33 12 -33 14 0
16 -26 16 -205 0 -198 -1 -205 -20 -205 -16 0 -20 -7 -20 -30 l0 -30 408 2
407 3 3 23 c3 17 -2 25 -17 29 -20 5 -21 11 -21 209 0 137 3 204 11 204 6 0 9
14 7 33 l-3 32 -80 8 c-73 7 -83 11 -116 43 -19 19 -52 39 -72 45 -27 7 -37
15 -37 29 0 11 -4 20 -10 20 -16 0 -11 37 6 44 8 3 13 10 9 15 -3 6 3 26 14
47 24 45 16 67 -45 118 -41 34 -44 40 -44 85 0 42 3 50 23 56 l22 8 -22 4
c-16 3 -23 11 -23 29 0 13 -4 24 -10 24 -5 0 -10 -11 -10 -25z m61 -197 c51
-43 62 -75 34 -98 -8 -7 -15 -21 -15 -31 0 -11 -7 -19 -15 -19 -11 0 -13 -8
-8 -30 5 -26 3 -30 -16 -30 -11 0 -21 -4 -21 -10 0 -5 14 -10 30 -10 17 0 30
-4 30 -10 0 -5 -9 -10 -19 -10 -11 0 -23 -4 -26 -10 -4 -6 10 -10 34 -10 53 0
89 -15 128 -52 32 -31 83 -47 156 -48 38 0 52 -22 21 -34 -14 -5 -15 -30 -8
-216 l7 -210 -46 0 -47 0 -2 203 -3 202 -23 3 c-13 2 -32 12 -43 23 -21 21
-60 25 -88 8 -14 -10 -24 -8 -47 9 -45 33 -93 33 -125 1 -18 -18 -25 -19 -46
-10 -36 16 -68 13 -87 -8 -10 -11 -30 -21 -45 -23 l-26 -3 -3 -202 -2 -203
-45 0 -45 0 0 215 c0 189 -2 215 -16 215 -9 0 -14 6 -12 13 3 7 35 15 79 20
41 5 81 14 90 20 9 7 33 25 53 41 26 20 52 30 86 34 51 5 70 22 25 22 -14 0
-25 5 -25 10 0 6 11 10 25 10 14 0 25 5 25 10 0 6 -5 10 -11 10 -7 0 -9 11 -5
30 4 22 2 30 -9 30 -8 0 -15 8 -15 19 0 10 -7 24 -15 31 -27 23 -17 53 32 97
27 23 49 42 51 43 2 0 26 -19 53 -42z m-24 -378 c17 -6 36 -22 43 -36 l13 -24
22 20 c27 25 69 26 92 1 10 -10 27 -21 38 -23 19 -3 20 -12 23 -196 l2 -192
-29 0 c-16 0 -33 -4 -36 -10 -4 -6 30 -10 94 -10 61 0 101 -4 101 -10 0 -6
-138 -10 -395 -10 -257 0 -395 4 -395 10 0 6 42 10 105 10 63 0 105 4 105 10
0 6 -13 10 -30 10 l-30 0 0 195 0 195 23 0 c12 0 28 9 35 20 16 26 67 27 89 1
16 -19 17 -19 36 6 11 13 29 29 41 33 11 5 21 9 22 9 1 1 15 -4 31 -9z"/>
<path d="M380 510 c-6 -12 -10 -61 -8 -118 l3 -97 40 0 40 0 3 104 c2 67 -1
108 -9 117 -17 21 -57 17 -69 -6z m68 -97 l3 -93 -31 0 -30 0 0 96 0 95 28 -3
27 -3 3 -92z"/>
<path d="M241 486 c-8 -9 -11 -46 -9 -103 l3 -88 40 0 40 0 3 82 c2 46 -2 92
-8 103 -12 23 -52 27 -69 6z m63 -22 c3 -9 6 -45 6 -80 l0 -64 -35 0 -35 0 0
73 c0 41 3 77 7 80 12 13 51 7 57 -9z"/>
<path d="M530 480 c-6 -11 -10 -57 -8 -103 l3 -82 40 0 40 0 3 88 c2 57 -1 94
-9 103 -17 21 -57 17 -69 -6z m68 -82 l3 -78 -31 0 -30 0 0 81 0 80 28 -3 c27
-3 27 -4 30 -80z"/>
<path d="M385 250 c-10 -11 -20 -42 -23 -70 -4 -40 -8 -50 -23 -50 -11 0 -19
-4 -19 -10 0 -6 40 -10 100 -10 60 0 100 4 100 10 0 6 -6 10 -14 10 -9 0 -16
17 -21 48 -3 26 -13 57 -21 70 -18 27 -55 29 -79 2z m75 -19 c5 -11 10 -38 10
-60 l0 -41 -51 0 -51 0 7 48 c4 26 12 53 17 60 16 19 56 14 68 -7z"/>
</g>
</svg>
