<?xml version="1.0" standalone="no"?>
<!DOCTYPE svg PUBLIC "-//W3C//DTD SVG 20010904//EN"
 "http://www.w3.org/TR/2001/REC-SVG-20010904/DTD/svg10.dtd">
<svg version="1.0" xmlns="http://www.w3.org/2000/svg"
 width="114.000000pt" height="126.000000pt" viewBox="0 0 114.000000 126.000000"
 preserveAspectRatio="xMidYMid meet">

<g transform="translate(0.000000,126.000000) scale(0.100000,-0.100000)"
fill="#000000" stroke="none">
<path d="M536 1185 c-9 -9 -16 -24 -16 -33 0 -10 -10 -22 -22 -27 -19 -8 -23
-18 -23 -55 0 -37 4 -47 23 -55 19 -8 22 -17 22 -62 0 -40 -4 -53 -15 -53 -8
0 -15 -4 -15 -10 0 -5 11 -10 25 -10 26 0 26 0 23 78 -3 71 -5 77 -25 80 -18
3 -23 10 -23 32 0 22 5 29 23 32 17 2 23 11 25 35 6 60 72 52 72 -8 0 -22 5
-29 20 -29 16 0 20 -7 20 -30 0 -23 -4 -30 -20 -30 -18 0 -20 -7 -20 -80 l0
-80 85 0 c78 0 85 2 85 20 0 16 7 20 35 20 28 0 35 -4 35 -20 0 -15 7 -20 29
-20 24 0 61 -21 61 -35 0 -14 -37 -35 -61 -35 -22 0 -29 -5 -29 -20 0 -16 -7
-20 -35 -20 -28 0 -35 4 -35 20 0 18 -7 20 -85 20 l-85 0 0 -216 c0 -141 3
-213 10 -209 6 4 10 83 10 206 l0 199 64 0 c59 0 65 -2 68 -22 3 -20 9 -23 53
-23 44 0 50 3 53 23 3 17 10 22 31 22 35 0 51 17 51 55 0 38 -16 55 -51 55
-21 0 -28 5 -31 23 -3 19 -9 22 -53 22 -44 0 -50 -3 -53 -22 -3 -21 -9 -23
-68 -23 l-64 0 0 54 c0 45 3 54 20 59 17 4 20 14 20 57 0 41 -4 53 -17 57 -10
2 -25 19 -33 36 -17 37 -58 48 -84 22z"/>
<path d="M297 944 c-4 -4 -7 -16 -7 -26 0 -13 -8 -18 -29 -18 -31 0 -61 -30
-61 -61 0 -23 33 -49 63 -49 19 0 26 -6 29 -22 3 -20 9 -23 48 -23 37 0 47 4
55 23 8 19 17 22 67 22 l58 0 0 -265 c0 -257 -1 -265 -20 -265 -39 0 -41 -98
-2 -115 13 -6 22 -19 22 -32 0 -13 11 -30 25 -39 34 -22 71 -7 80 34 3 18 14
32 26 35 16 4 19 14 19 57 0 43 -3 53 -20 57 -15 4 -20 14 -20 39 0 19 -4 34
-10 34 -5 0 -10 -22 -10 -50 0 -43 3 -50 20 -50 16 0 20 -7 20 -30 0 -23 -4
-30 -20 -30 -15 0 -20 -7 -20 -27 0 -39 -13 -55 -41 -51 -19 2 -25 11 -29 38
-4 27 -10 36 -27 38 -18 3 -23 10 -23 32 0 22 5 29 23 32 l22 3 3 288 2 287
-80 0 c-73 0 -80 -2 -80 -20 0 -16 -7 -20 -35 -20 -28 0 -35 4 -35 19 0 15 -8
20 -36 23 -47 4 -68 32 -40 54 11 8 32 14 48 14 21 0 28 5 28 20 0 16 7 20 35
20 28 0 35 -4 35 -20 0 -15 7 -20 25 -20 14 0 25 5 25 10 0 6 -6 10 -14 10 -8
0 -16 10 -18 23 -3 19 -10 22 -48 25 -25 2 -49 0 -53 -4z"/>
</g>
</svg>
