<?xml version="1.0" standalone="no"?>
<!DOCTYPE svg PUBLIC "-//W3C//DTD SVG 20010904//EN"
 "http://www.w3.org/TR/2001/REC-SVG-20010904/DTD/svg10.dtd">
<svg version="1.0" xmlns="http://www.w3.org/2000/svg"
 width="102.000000pt" height="126.000000pt" viewBox="0 0 102.000000 126.000000"
 preserveAspectRatio="xMidYMid meet">

<g transform="translate(0.000000,126.000000) scale(0.100000,-0.100000)"
fill="#000000" stroke="none">
<path d="M792 1108 l-2 -108 -110 0 c-67 0 -110 -4 -110 -10 0 -6 43 -10 110
-10 l110 0 0 -170 c0 -138 -3 -170 -14 -170 -8 0 -24 -9 -37 -19 -22 -18 -26
-18 -64 -3 -22 8 -46 19 -52 25 -9 6 -27 4 -53 -7 -52 -21 -67 -20 -87 4 -10
11 -24 20 -32 20 -11 0 -9 -6 7 -20 19 -18 31 -70 16 -70 -3 0 -23 14 -45 32
-21 17 -42 28 -46 24 -4 -4 1 -12 12 -18 10 -6 37 -28 59 -48 23 -21 51 -42
63 -49 52 -27 114 -6 192 63 43 38 59 47 84 44 26 -2 33 -8 35 -28 7 -61 -302
-303 -420 -329 -32 -7 -58 -17 -58 -22 0 -12 5 -11 70 6 114 30 430 282 430
343 0 12 5 24 10 27 16 10 11 41 -10 60 -24 22 -27 9 -4 -16 23 -25 10 -41
-21 -27 l-25 11 0 169 0 168 110 0 c67 0 110 4 110 10 0 6 -43 10 -110 10
l-109 0 -4 108 -3 107 -2 -107z m-207 -515 c-3 -16 -17 -39 -29 -52 -22 -22
-25 -22 -49 -7 -20 14 -24 22 -18 43 5 20 14 26 39 28 18 2 36 6 39 9 15 15
25 4 18 -21z m84 8 l35 -18 -40 -26 c-21 -14 -52 -29 -67 -33 l-29 -7 16 31
c9 17 16 40 16 52 0 25 23 26 69 1z"/>
<path d="M701 1195 c-1 -5 8 -21 19 -35 11 -14 20 -20 20 -14 0 7 -9 22 -20
35 -10 13 -19 20 -19 14z"/>
<path d="M870 1175 c-7 -14 -11 -28 -7 -31 3 -3 13 8 22 25 8 17 12 31 7 31
-5 0 -15 -11 -22 -25z"/>
<path d="M630 1173 c1 -11 50 -66 55 -61 6 5 -38 68 -47 68 -5 0 -8 -3 -8 -7z"/>
<path d="M930 1155 c-13 -14 -19 -25 -13 -25 12 0 48 38 41 45 -2 3 -15 -6
-28 -20z"/>
<path d="M970 1110 c-8 -5 -11 -12 -7 -16 4 -4 15 0 24 9 18 18 8 23 -17 7z"/>
<path d="M620 1102 c0 -12 19 -26 26 -19 2 2 -2 10 -11 17 -9 8 -15 8 -15 2z"/>
<path d="M610 890 c-8 -5 -11 -12 -7 -16 4 -4 15 0 24 9 18 18 8 23 -17 7z"/>
<path d="M955 890 c3 -5 11 -10 16 -10 6 0 7 5 4 10 -3 6 -11 10 -16 10 -6 0
-7 -4 -4 -10z"/>
<path d="M910 874 c0 -5 11 -25 25 -44 14 -19 25 -27 25 -19 0 16 -49 79 -50
63z"/>
<path d="M649 841 c-13 -11 -20 -23 -16 -27 4 -4 17 2 29 14 28 28 18 38 -13
13z"/>
<path d="M716 824 c-10 -14 -15 -28 -13 -31 3 -2 13 7 23 21 9 15 14 29 12 32
-3 2 -13 -7 -22 -22z"/>
<path d="M860 839 c0 -9 9 -27 20 -40 25 -31 25 -18 0 23 -12 20 -20 26 -20
17z"/>
<path d="M313 758 c-15 -7 -43 -57 -88 -156 -36 -80 -64 -150 -62 -155 2 -6
31 53 66 129 34 76 72 147 83 157 17 14 41 17 162 17 128 0 149 -3 206 -25 73
-28 70 -28 70 -17 0 5 -30 21 -68 35 -62 25 -79 27 -207 26 -77 0 -150 -5
-162 -11z"/>
<path d="M793 430 c0 -36 2 -50 4 -32 2 17 2 47 0 65 -2 17 -4 3 -4 -33z"/>
<path d="M53 381 c-24 -28 -43 -52 -43 -55 0 -2 60 -59 134 -125 l134 -121 46
54 c25 30 46 56 46 59 0 8 -258 237 -267 237 -4 0 -27 -22 -50 -49z m159 -62
c159 -141 146 -120 108 -168 -19 -23 -37 -41 -43 -41 -9 0 -247 209 -247 217
0 8 65 83 72 83 4 0 54 -41 110 -91z"/>
</g>
</svg>
